# xmcd
#
# Track frame offsets:
#	150
#	49530
#	73201
#	114059
#	166994
#
# Disc length: 2677 seconds
#
# Revision: 1
# Processed by: cddbd v1.5.2PL0 Copyright (c) Steve Scherf et al.
# Submitted via: audiograbber 1.83.01
#
DISCID=380a7305
DTITLE=Zawinul, Joe - Brown Street - Live at the Birdland Vienna
DYEAR=2006
DGENRE=Jazz
TTITLE0=Brown Street
TTITLE1=In A Silent Way
TTITLE2=Fast City
TTITLE3=Badia/Boogie Woogie Waltz
TTITLE4=Black Market
EXTD=YEAR: 2006
EXTT0=
EXTT1=
EXTT2=
EXTT3=
EXTT4=
PLAYORDER=
